HIERARCHY
ROOT Hips
{
	OFFSET 51.662300 -7.528738 50.564301
	CHANNELS 6 Xposition Yposition Zposition Xrotation Yrotation Zrotation
	JOINT spine
	{
		OFFSET 0.000000 -0.507026 8.817039
		CHANNELS 3 Xrotation Yrotation Zrotation
		JOINT spine1
		{
			OFFSET 0.000000 -0.000002 10.776604
			CHANNELS 3 Xrotation Yrotation Zrotation
			JOINT spine2
			{
				OFFSET 0.000000 -0.000002 10.325897
				CHANNELS 3 Xrotation Yrotation Zrotation
				JOINT Neck
				{
					OFFSET 0.000000 -1.263954 26.511002
					CHANNELS 3 Xrotation Yrotation Zrotation
					JOINT Head
					{
						OFFSET 0.000000 -0.000002 8.009659
						CHANNELS 3 Xrotation Yrotation Zrotation
						End Site
						{
							OFFSET 0.000000 6.393857 19.387894
						}
					}
				}
				JOINT RightShoulder
				{
					OFFSET -4.347950 0.605421 11.151199
					CHANNELS 3 Xrotation Yrotation Zrotation
					JOINT RightArm
					{
						OFFSET 0.000000 -0.000002 14.625801
						CHANNELS 3 Xrotation Yrotation Zrotation
						JOINT RightArmRoll
						{
							OFFSET 0.000000 -0.000001 7.383400
							CHANNELS 3 Xrotation Yrotation Zrotation
							JOINT RightForeArm
							{
								OFFSET 0.000000 -0.000003 21.505203
								CHANNELS 3 Xrotation Yrotation Zrotation
								JOINT RightForeArmRoll
								{
									OFFSET 0.000000 -0.000001 8.285324
									CHANNELS 3 Xrotation Yrotation Zrotation
									JOINT RightHand
									{
										OFFSET 0.000000 -0.000003 16.626801
										CHANNELS 3 Xrotation Yrotation Zrotation
										End Site
										{
											OFFSET 0.000000 0.000000 0.100006
										}
									}
								}
							}
						}
					}
				}
				JOINT LeftShoulder
				{
					OFFSET 4.347950 0.605421 11.151199
					CHANNELS 3 Xrotation Yrotation Zrotation
					JOINT LeftArm
					{
						OFFSET 0.000000 -0.000002 14.625801
						CHANNELS 3 Xrotation Yrotation Zrotation
						JOINT LeftArmRoll
						{
							OFFSET 0.000000 -0.000001 7.383400
							CHANNELS 3 Xrotation Yrotation Zrotation
							JOINT LeftForeArm
							{
								OFFSET 0.000000 -0.000003 21.505203
								CHANNELS 3 Xrotation Yrotation Zrotation
								JOINT LeftForeArmRoll
								{
									OFFSET 0.000000 -0.000001 8.285324
									CHANNELS 3 Xrotation Yrotation Zrotation
									JOINT LeftHand
									{
										OFFSET 0.000000 -0.000003 16.626801
										CHANNELS 3 Xrotation Yrotation Zrotation
										End Site
										{
											OFFSET 0.000000 0.000000 0.100006
										}
									}
								}
							}
						}
					}
				}
			}
		}
	}
	JOINT RightUpLeg
	{
		OFFSET -7.815102 1.202170 -1.433090
		CHANNELS 3 Xrotation Yrotation Zrotation
		JOINT RightUpLegRoll
		{
			OFFSET 0.000000 -0.000003 19.495895
			CHANNELS 3 Xrotation Yrotation Zrotation
			JOINT RightLeg
			{
				OFFSET 0.000000 0.000004 -24.142700
				CHANNELS 3 Xrotation Yrotation Zrotation
				JOINT RightLegRoll
				{
					OFFSET 0.000000 -0.000004 24.221703
					CHANNELS 3 Xrotation Yrotation Zrotation
					JOINT RightFoot
					{
						OFFSET 0.000000 -0.000003 20.160500
						CHANNELS 3 Xrotation Yrotation Zrotation
						JOINT RightToeBase
						{
							OFFSET 0.000000 -0.000003 16.853203
							CHANNELS 3 Xrotation Yrotation Zrotation
							End Site
							{
								OFFSET 0.007145 0.940779 8.161873
							}
						}
					}
				}
			}
		}
	}
	JOINT LeftUpLeg
	{
		OFFSET 7.815102 1.202170 -1.433090
		CHANNELS 3 Xrotation Yrotation Zrotation
		JOINT LeftUpLegRoll
		{
			OFFSET 0.000000 -0.000003 19.496002
			CHANNELS 3 Xrotation Yrotation Zrotation
			JOINT LeftLeg
			{
				OFFSET 0.000000 -0.000004 24.142601
				CHANNELS 3 Xrotation Yrotation Zrotation
				JOINT LeftLegRoll
				{
					OFFSET 0.000000 -0.000004 24.445602
					CHANNELS 3 Xrotation Yrotation Zrotation
					JOINT LeftFoot
					{
						OFFSET 0.000000 -0.000003 19.936592
						CHANNELS 3 Xrotation Yrotation Zrotation
						JOINT LeftToeBase
						{
							OFFSET 0.000000 -0.000003 16.853195
							CHANNELS 3 Xrotation Yrotation Zrotation
							End Site
							{
								OFFSET -0.032013 0.940780 8.161865
							}
						}
					}
				}
			}
		}
	}
}
MOTION
Frames: 7
Frame Time: 0.041667
50.892803 -40.096115 100.802994 -3.497970 -0.428501 0.851500 -1.833508 -0.233560 -0.094278 0.335409 -0.454316 -0.198354 1.980493 -0.456594 -0.192987 28.066087 5.910552 2.027777 -12.664643 4.312022 2.675005 -2.089653 -63.474778 -3.010658 -38.949181 -113.241661 -24.289336 0.000001 -0.000001 -0.000001 1.330655 -14.208822 0.011295 0.000000 0.000006 -3.000001 -5.000238 -7.998753 0.000159 -11.962101 63.815646 14.364342 -36.927800 113.358771 29.710630 0.000002 0.000018 0.000000 5.855643 11.804134 -0.124178 -0.000002 -0.000009 2.999989 -5.000216 7.998690 -0.000141 2.254051 -178.996760 -0.639742 -179.999991 0.000005 -1.128001 172.659833 -0.946178 -0.503874 0.000004 0.000003 0.072638 68.893714 6.887525 2.149132 26.321133 -7.347750 0.763582 1.993446 177.989225 3.095816 -0.000005 -0.000004 -1.122160 -7.680630 1.293722 0.430565 -0.000001 0.000000 -0.110290 69.471773 -6.890183 -2.116359 25.733848 7.353846 -0.398148 
50.882103 -40.092827 100.798981 -3.487864 -0.429075 0.855325 -1.834287 -0.233561 -0.095584 0.333859 -0.454616 -0.200677 1.978943 -0.456884 -0.195300 28.059409 5.915432 2.026229 -12.658793 4.315851 2.673529 -2.079022 -63.470735 -2.998089 -38.944537 -113.239100 -24.276712 0.000002 -0.000000 -0.000001 1.323562 -14.204062 0.009732 -0.000002 0.000006 -3.000001 -5.000241 -7.998754 0.000159 -11.956320 63.820290 14.357932 -36.936775 113.345876 29.712948 0.000001 0.000017 0.000001 5.855960 11.802738 -0.124254 -0.000001 -0.000009 2.999990 -5.000218 7.998689 -0.000141 2.244993 -178.993782 -0.637312 -179.999991 0.000005 -1.128001 172.667114 -0.951153 -0.503395 0.000004 0.000003 0.072622 68.888427 6.887495 2.149154 26.323158 -7.347748 0.761701 1.976896 177.990195 3.097171 -0.000005 -0.000004 -1.122160 -7.686513 1.294567 0.431008 -0.000001 0.000000 -0.110282 69.472511 -6.890180 -2.116414 25.731010 7.353848 -0.395225 
50.880001 -40.103424 100.799988 -3.477359 -0.429696 0.859592 -1.835176 -0.233562 -0.096975 0.332075 -0.454912 -0.203179 1.977164 -0.457171 -0.197792 28.053347 5.920534 2.024591 -12.653638 4.319548 2.672029 -2.067701 -63.466589 -2.984710 -38.940749 -113.235575 -24.265336 0.000003 -0.000001 -0.000002 1.316532 -14.199403 0.008153 -0.000001 0.000006 -3.000000 -5.000239 -7.998751 0.000158 -11.950205 63.825263 14.351158 -36.945043 113.331621 29.715568 0.000003 0.000018 0.000001 5.857861 11.802300 -0.124604 -0.000003 -0.000009 2.999990 -5.000215 7.998690 -0.000141 2.235653 -178.990776 -0.634788 -179.999991 0.000005 -1.128001 172.674668 -0.956128 -0.503907 0.000004 0.000003 0.072599 68.882943 6.887488 2.149095 26.325482 -7.347747 0.759819 1.959634 177.990181 3.098738 -0.000005 -0.000004 -1.122160 -7.692707 1.295281 0.431472 -0.000001 0.000000 -0.110269 69.473255 -6.890176 -2.116466 25.728086 7.353855 -0.392158 
50.888603 -40.103325 100.800995 -3.466549 -0.430348 0.864168 -1.836145 -0.233563 -0.098426 0.330130 -0.455207 -0.205808 1.975214 -0.457455 -0.200411 28.047595 5.925814 2.022901 -12.648985 4.323159 2.670520 -2.055894 -63.462259 -2.970744 -38.935288 -113.232775 -24.252062 0.000002 0.000000 -0.000002 1.309555 -14.194845 0.006571 -0.000003 0.000006 -3.000000 -5.000238 -7.998753 0.000158 -11.943877 63.830556 14.344135 -36.953707 113.316281 29.719246 0.000002 0.000018 0.000001 5.860868 11.802334 -0.125118 -0.000001 -0.000009 2.999990 -5.000216 7.998690 -0.000141 2.226094 -178.987771 -0.632196 -179.999991 0.000005 -1.128001 172.682427 -0.961103 -0.503417 0.000004 0.000003 0.072571 68.877246 6.887505 2.149152 26.328007 -7.347751 0.757961 1.941863 177.991151 3.100514 -0.000005 -0.000004 -1.122160 -7.699110 1.295896 0.431949 -0.000001 0.000000 -0.110254 69.474102 -6.890177 -2.116514 25.725052 7.353850 -0.388979 
50.888901 -40.102318 100.799988 -3.455576 -0.431019 0.868922 -1.837156 -0.233564 -0.099911 0.328093 -0.455501 -0.208510 1.973173 -0.457737 -0.203102 28.042154 5.931177 2.021168 -12.644633 4.326717 2.669011 -2.043812 -63.457826 -2.956462 -38.929643 -113.229899 -24.238719 0.000003 -0.000000 -0.000000 1.302603 -14.190279 0.004983 -0.000000 0.000006 -3.000001 -5.000238 -7.998751 0.000157 -11.937369 63.835870 14.336922 -36.961340 113.300653 29.722268 0.000001 0.000018 0.000000 5.864495 11.802856 -0.125749 -0.000000 -0.000010 2.999989 -5.000220 7.998690 -0.000141 2.216425 -178.984766 -0.629568 -179.999991 0.000005 -1.128001 172.690268 -0.966079 -0.503921 0.000004 0.000003 0.072539 68.871448 6.887513 2.149115 26.330637 -7.347747 0.756096 1.923812 177.992134 3.102371 -0.000005 -0.000004 -1.122160 -7.705645 1.296450 0.432434 -0.000001 0.000000 -0.110237 69.475038 -6.890150 -2.116552 25.722021 7.353855 -0.385766 
50.892200 -40.105820 100.801987 -3.444557 -0.431692 0.873720 -1.838186 -0.233565 -0.101404 0.326030 -0.455793 -0.211230 1.971113 -0.458019 -0.205812 28.036712 5.936564 2.019432 -12.640278 4.330266 2.667489 -2.031655 -63.453304 -2.942092 -38.923974 -113.227044 -24.225354 0.000001 -0.000000 -0.000002 1.295657 -14.185718 0.003393 -0.000000 0.000006 -3.000001 -5.000238 -7.998752 0.000159 -11.930834 63.841280 14.329675 -36.968969 113.285033 29.725342 0.000001 0.000018 0.000000 5.868284 11.803375 -0.126406 -0.000002 -0.000009 2.999990 -5.000220 7.998691 -0.000140 2.206727 -178.980750 -0.626892 -179.999991 0.000005 -1.128001 172.698164 -0.971055 -0.503426 0.000004 0.000003 0.072507 68.865744 6.887490 2.149166 26.333364 -7.347748 0.754239 1.905690 177.993104 3.104268 -0.000005 -0.000004 -1.122160 -7.712207 1.297005 0.432922 -0.000001 0.000000 -0.110219 69.475899 -6.890185 -2.116603 25.718893 7.353856 -0.382514 
50.884605 -40.104622 100.800995 -3.433630 -0.432355 0.878430 -1.839197 -0.233565 -0.102881 0.324016 -0.456087 -0.213913 1.969103 -0.458301 -0.208485 28.031170 5.941915 2.017701 -12.635824 4.333835 2.665984 -2.019654 -63.448974 -2.927906 -38.919777 -113.223404 -24.213593 0.000004 -0.000000 -0.000003 1.288702 -14.181155 0.001806 -0.000003 0.000005 -3.000000 -5.000240 -7.998752 0.000158 -11.924410 63.846689 14.322545 -36.976821 113.269467 29.728494 0.000003 0.000017 0.000001 5.871761 11.803806 -0.127004 -0.000005 -0.000010 2.999990 -5.000220 7.998690 -0.000141 2.197085 -178.977758 -0.624275 -179.999991 0.000005 -1.128000 172.706005 -0.977034 -0.503059 0.000005 0.000003 0.072476 68.859952 6.887497 2.149128 26.335891 -7.347751 0.752361 1.887706 177.994088 3.106101 -0.000005 -0.000004 -1.122160 -7.718703 1.297579 0.433405 -0.000001 0.000000 -0.110203 69.476746 -6.890186 -2.116650 25.715860 7.353852 -0.379306 
